PathFileType	4	(X/Y/Z)	Patient5_TMGait_0pt45_1_left_08.trc.trc
DataRate	CameraRate	NumFrames	NumMarkers	Units	OrigDataRate	OrigDataStartFrame	OrigNumFrames
57.851239669421	57.851239669421	4	32	mm	57.851239669421	36	       141
Frame#	Time	R.ASIS			L.ASIS			Chest			R.Shoulder			Neck			L.Shoulder			L.Elbow			L.Wrist			R.Elbow			R.Wrist			L.Thigh.Superior			L.Thigh.Lateral			L.Thigh.Inferior			L.Patella			L.Shank.Superior			L.Shank.Lateral			L.Shank.Inferior			L.Heel			L.Midfoot.Lateral			L.Midfoot.Superior			L.Toe			R.Thigh.Superior			R.Thigh.Lateral			R.Thigh.Inferior			R.Patella			R.Shank.Superior			R.Shank.Lateral			R.Shank.Inferior			R.Heel			R.Midfoot.Lateral			R.Midfoot.Superior			R.Toe			
		X1	Y1	Z1	X2	Y2	Z2	X3	Y3	Z3	X4	Y4	Z4	X5	Y5	Z5	X6	Y6	Z6	X7	Y7	Z7	X8	Y8	Z8	X9	Y9	Z9	X10	Y10	Z10	X11	Y11	Z11	X12	Y12	Z12	X13	Y13	Z13	X14	Y14	Z14	X15	Y15	Z15	X16	Y16	Z16	X17	Y17	Z17	X18	Y18	Z18	X19	Y19	Z19	X20	Y20	Z20	X21	Y21	Z21	X22	Y22	Z22	X23	Y23	Z23	X24	Y24	Z24	X25	Y25	Z25	X26	Y26	Z26	X27	Y27	Z27	X28	Y28	Z28	X29	Y29	Z29	X30	Y30	Z30	X31	Y31	Z31	X32	Y32	Z32	

36	12.355000000000	1059.818755156208	984.556768128843	562.637539136153	1091.761866193394	958.724410081675	326.588332045536	1161.997775091554	1433.313630364643	448.553433763188	1045.259412456350	1503.224143267820	600.198381837228	1044.273720611289	1559.938372665288	413.546989955749	1126.568335993392	1499.201757844767	244.275627319964	1048.438596652966	1184.984339554705	110.591407653985	1153.510181816412	916.434039306558	122.867112471194	941.764183023127	1188.592715364957	736.995382456615	1157.456197331141	996.364658517068	706.362015159201	1143.927366914609	757.151101682786	319.980397795034	1088.770434180834	673.074554799899	274.953701800479	1165.353456019628	633.523000602533	349.954472951142	1187.380927708320	517.524527531017	361.589899179379	1147.835526024416	407.988622763232	376.921486833026	1096.416615941772	333.266621737468	292.617414534954	1124.466977360454	282.566158858806	382.686440977485	1010.348197153186	49.833782206083	379.360572863621	1100.819545353355	26.921716398183	321.103092421743	1195.652695578285	89.808708732723	369.412802886196	1302.690234385074	48.384497375920	377.189062036241	1054.227653100162	748.318671299846	592.899298559168	953.182870396580	681.967466564805	639.300915869059	1036.724021074275	615.793544576893	582.639876979998	1018.427022020577	514.111652586689	614.985687050087	942.836829251035	422.569049814800	570.245524882380	843.979431475715	386.412668700578	642.571348184805	876.310458550440	299.038184603017	566.237471682302	680.744873484626	126.401412784861	524.412918689369	743.663928047413	66.990670747943	594.339400234260	863.960815276879	97.779200229291	581.850162522189	947.392002975261	41.312922879985	574.611389246298	
37	12.372285714286	1059.307483915476	986.916798329349	559.000815265709	1093.207276393054	959.614272481538	323.603523835911	1162.255833449368	1434.745332050333	446.197255791601	1043.285163982451	1504.598577515428	596.083528397247	1045.115230151400	1561.454317834509	409.494592005054	1130.233166965200	1500.863747680573	241.649771089360	1056.020847603155	1186.641134610584	105.929871275066	1163.537473365124	919.200936168379	119.620428552051	937.432477403780	1189.923987046133	731.003438891610	1152.795479254895	997.128105438862	701.792587236471	1143.073080631555	756.956469290320	318.391356072816	1087.027142433217	673.264663163322	272.393587857330	1162.391893650957	632.716049407039	347.940373886440	1182.719128829194	516.508655857868	359.583882292160	1142.457011809705	407.540013946014	375.207856016995	1090.718522886949	332.745113139776	291.147941271129	1118.228438340219	282.342203399666	381.559839003781	1002.826385945581	49.866499605312	379.183422017109	1093.288503714276	26.870732237411	320.953474324953	1188.160467216432	89.688826519702	369.238279680758	1295.238528293151	48.021541727598	377.152441311964	1059.066634440739	752.169492596813	593.498394362366	960.022703543612	684.039380117416	640.066351227274	1045.813495961163	618.890990957714	585.313304847615	1028.651085812764	516.163265425488	618.542544169001	950.740142354876	424.664398557186	573.457207070057	850.667362090781	390.900675821008	645.729435878769	880.181373374216	303.032498457831	568.806361677233	679.624066914868	139.393390709233	526.599658861084	739.544174550502	75.845375410052	595.455293082972	861.229217707934	101.140921663013	583.652563258357	941.550902438988	41.058164833624	575.236299003765	
38	12.389571428571	1058.723255721327	989.074645454984	555.622329765927	1094.291992747837	960.382882152302	320.745791065535	1162.155317394283	1435.971868219040	443.820638558246	1041.099499970223	1505.737896069117	592.003284976419	1045.648365109102	1562.776745248061	405.529486774534	1133.387548830560	1502.319422426752	239.080296027818	1063.426969655904	1188.038250741636	101.424629163876	1173.451905830687	921.755513496912	116.457492243024	933.343564912511	1190.937240687232	725.155750784471	1148.257175355352	997.467356627711	697.373251858135	1141.961637648085	756.807390052499	316.855340841551	1085.116938203364	673.509099677128	269.992414151130	1159.405418380506	631.965540781263	345.911666753836	1178.062659713848	515.513582841305	357.509916509035	1137.093043673915	407.079491952514	373.484791029720	1084.916060006952	332.270855350643	289.674167666310	1111.987806199306	282.121176773085	380.430785643087	995.194118365937	49.941901768275	379.003187465830	1085.641728641947	26.820025888610	320.811051169600	1180.588285944043	89.524332989642	369.071112367613	1287.687896087509	47.597131467311	377.137400933145	1063.814945848324	756.159311878417	594.453137118317	967.000145970579	686.219703012464	641.091129391967	1054.944245991416	622.229316700229	588.056283994161	1039.010134235242	518.509567630556	622.096041700248	959.011829861648	427.166143352879	576.772589089763	857.845939794306	395.750021648351	649.067694363977	884.549472209355	307.506314137844	571.476750496792	679.491965437334	153.294416282199	528.933110075725	736.004348563065	85.644657359431	596.646614995933	858.869910139392	105.161293655781	585.492423342413	935.853422165038	40.733793411099	575.962957531095	
39	12.406857142857	1058.203402927684	991.175460188393	552.522603522583	1095.044666344757	961.083414824614	317.957261909906	1161.718491848239	1437.075995690320	441.419217569309	1038.732786097695	1506.730596520082	587.987286561179	1045.876831276475	1563.962088732204	401.671022896508	1135.968264870560	1503.622690031861	236.547150975682	1070.518946336194	1189.207553436381	97.151251834831	1183.166890343218	924.152168569505	113.364898963913	929.389146464892	1191.708703401913	719.403543666111	1143.817861065854	997.522991456588	693.145595487192	1140.611642698992	756.616380097016	315.087342660428	1082.906276571361	673.748107873469	267.694883582478	1156.404034047167	631.236386070354	343.709218022759	1173.454294508610	514.555034616476	355.314453725721	1131.777806812516	406.620236394938	371.748899630428	1078.999155435552	331.863663177701	288.221728561546	1105.771697902058	281.918006149337	379.302909327966	987.467610086015	50.043993661503	378.819648801321	1077.894895226131	26.775727496699	320.671337333990	1172.938726806376	89.349561458454	368.890720500119	1280.042500105327	47.171502920292	377.107908904334	1068.368257138238	760.284602787816	595.586305968879	973.916996575953	688.611741732267	642.270075541425	1063.855919230135	625.845159832117	590.714271339003	1049.225502567350	521.226539486739	625.526275162977	967.385050172923	430.108111920983	580.069697672802	865.244702208946	400.973279877386	652.457736085314	889.239162137930	312.446792195119	574.165765961037	680.277319931363	167.847911346352	531.337745486074	733.019841339875	96.210538407579	597.865061549361	856.839998495805	109.758548659915	587.350437249862	930.228824762834	40.353753735684	576.767524798999	
